inDegrees=no
num_controls=7
num_derivatives=13
num_iterations=153
num_multipliers=7
num_parameters=0
num_slacks=7
num_states=26
objective=5.325582
objective_accelerations=0.448680
objective_balance=0.014893
objective_effort=0.384097
objective_height=4.384755
objective_ligament=0.093157
solver_duration=1343.654088
status=Solve_Succeeded
success=true
DataType=double
version=3
OpenSimVersion=4.4-2022-07-23-0e9fedc
endheader
time	/jointset/ground_pelvis/pelvis_tilt/value	/jointset/ground_pelvis/pelvis_tx/value	/jointset/ground_pelvis/pelvis_ty/value	/jointset/hip_r/hip_flexion_r/value	/jointset/hip_r/hip_adduction_r/value	/jointset/hip_r/hip_rotation_r/value	/jointset/back/lumbar_extension/value	/jointset/patellofemoral_r/patellar_flexion_r/value	/jointset/knee_r/knee_flexion_r/value	/jointset/knee_r/knee_adduction_r/value	/jointset/knee_r/knee_rotation_r/value	/jointset/ankle_r/ankle_angle_r/value	/jointset/subtalar_r/subtalar_angle_r/value	/jointset/ground_pelvis/pelvis_tilt/speed	/jointset/ground_pelvis/pelvis_tx/speed	/jointset/ground_pelvis/pelvis_ty/speed	/jointset/hip_r/hip_flexion_r/speed	/jointset/hip_r/hip_adduction_r/speed	/jointset/hip_r/hip_rotation_r/speed	/jointset/back/lumbar_extension/speed	/jointset/patellofemoral_r/patellar_flexion_r/speed	/jointset/knee_r/knee_flexion_r/speed	/jointset/knee_r/knee_adduction_r/speed	/jointset/knee_r/knee_rotation_r/speed	/jointset/ankle_r/ankle_angle_r/speed	/jointset/subtalar_r/subtalar_angle_r/speed	/forceset/tau_hip_flexion_r	/forceset/tau_hip_adduction_r	/forceset/tau_hip_rotation_r	/forceset/tau_knee_flexion_r	/forceset/tau_ankle_angle_r	/forceset/tau_subtalar_angle_r	/forceset/tau_lumbar_extension	lambda_cid13_p0	lambda_cid14_p0	lambda_cid14_p1	lambda_cid14_p2	lambda_cid14_p3	lambda_cid14_p4	lambda_cid14_p5	/jointset/ground_pelvis/pelvis_tilt/accel	/jointset/ground_pelvis/pelvis_tx/accel	/jointset/ground_pelvis/pelvis_ty/accel	/jointset/hip_r/hip_flexion_r/accel	/jointset/hip_r/hip_adduction_r/accel	/jointset/hip_r/hip_rotation_r/accel	/jointset/back/lumbar_extension/accel	/jointset/patellofemoral_r/patellar_flexion_r/accel	/jointset/knee_r/knee_flexion_r/accel	/jointset/knee_r/knee_adduction_r/accel	/jointset/knee_r/knee_rotation_r/accel	/jointset/ankle_r/ankle_angle_r/accel	/jointset/subtalar_r/subtalar_angle_r/accel	gamma_cid13_p0	gamma_cid14_p0	gamma_cid14_p1	gamma_cid14_p2	gamma_cid14_p3	gamma_cid14_p4	gamma_cid14_p5
1	-0.1556961342605831	0.01198310936906216	0.700867213020486	1.182164689965164	-0.2314350178015409	-0.1299223976498183	-0.785368930275715	1.344123992094187	1.34412399209418	-0.1744466161975242	0.1744068711603997	0.4363015528105557	0.1898301074851966	0.06709923154179898	0.006392888036538219	0.01670411453356422	-0.1041386338885177	-0.001173453016946882	0.002906835576928998	0.00449038338628819	-0.02663235755236191	-0.02663235755236223	0.01295708219225138	-0.0002078999306551226	0.008863496177126269	0.002486330727309875	-0.2820710487683655	0.02541060357150817	0.01651496319239195	-0.4241126802519294	-0.04272743986865796	0.01335700814370075	0.3273499613716451	-0.04318594436133305	-63.21443556144119	-7.108012780095493	3.657520765629197	6.710437256028027	-749.28622110088	76.04662343593144	1.068803208837201	0.1814030744481644	1.437227212004888	-4.441551325224037	0.260687123222317	-0.2792684624722695	0.309787335726398	-4.373775932828067	-4.373775932828093	0.8261830309154777	-0.01896100688248267	-1.163681154724545	-0.1274264539783965	3.790990523831418e-10	-1.318351722866281e-09	1.571071362995576e-08	7.845173610031617e-09	2.869265286662302e-09	-5.811114773221482e-09	2.128984396768251e-08
1.01	-0.1549727662640641	0.01205632934647015	0.70110597571013	1.18090222158982	-0.2314340173920192	-0.1299049852267035	-0.7853057765187216	1.3436394909865	1.34363949098651	-0.1742731277628022	0.1744036697991563	0.4363322249414521	0.1898480947098932	0.07753145405411849	0.008275915396581743	0.03104762965692026	-0.1483461091781468	0.001360476295041389	0.0006007123351497946	0.008343904216931725	-0.07026829383554418	-0.0702682938355462	0.0217850582776897	-0.0004230650339850718	-0.002701878199663684	0.001100365534978008	-0.2829566930081752	0.02548482981650397	0.01657120788682043	-0.4240278899761606	-0.04303596445847126	0.01334179170963446	0.3285420363669553	-0.04317872319907595	-63.35477205928849	-7.135047977935576	3.657096313423745	6.478437593415393	-750.0790944356932	76.03592793107542	1.023996231351003	0.1954743651323843	1.432792275080058	-4.409004565606128	0.2477919912186422	-0.2025228006563401	0.4536648875136862	-4.358567582165552	-4.358567582165797	0.9177743962258126	-0.02138920402779879	-1.148887790812842	-0.1457845063128859	3.115062114960189e-09	2.13663064190322e-09	3.426184894545369e-08	3.262418015190504e-08	3.026906326808555e-09	-1.157509541885842e-08	5.350649402533775e-08
1.02	-0.1541463631506356	0.01214912395714859	0.7014881492735233	1.179197946674618	-0.2314080684581634	-0.1299098817451812	-0.7851979814672674	1.342718617494761	1.342718617494789	-0.1740100256674181	0.1743985977984435	0.4362480588862511	0.1898519016917761	0.08770625492330762	0.01030781469062955	0.04538628928343089	-0.1924999418587287	0.003816251848327416	-0.001554952731658384	0.01341864227879247	-0.1139068343628173	-0.1139068343628208	0.03087981431784387	-0.0005820278160834944	-0.01410414104272043	-0.0003497178354568823	-0.2838423372480244	0.02555905606137118	0.01662745258100883	-0.4239430997004196	-0.04334448904831405	0.01332657527531616	0.329734111362232	-0.04317679384509713	-63.50359628727288	-7.158823969411699	3.650731493411827	6.244215306557868	-751.0148910040134	76.06508416901079	1.017318880211168	0.2111774612489932	1.436256112635802	-4.430822803414578	0.2450563714818674	-0.2491768274780811	0.5540307819698671	-4.374296781646238	-4.374296781646208	0.8795390218586363	-0.007720542636157485	-1.131058847977948	-0.1402500895990252	6.622913008166995e-09	9.305382847629496e-09	5.515192076530512e-08	6.450408906295061e-08	-2.669187059144471e-09	-1.54711660707376e-08	9.365775043256724e-08
1.03	-0.1532194861768066	0.01226279425359733	0.7020136144982458	1.177052742850775	-0.2313578906368666	-0.1299357085174768	-0.7850340162394874	1.34136129401066	1.341361294010657	-0.173654829444239	0.1743922001085938	0.4360502865233533	0.1898407942405942	0.09762567414813961	0.01243235092654132	0.05969867452761936	-0.2364957616650063	0.006212874171510984	-0.003595812797133183	0.01951212524947575	-0.1575630979229722	-0.1575630979229755	0.04018643046278438	-0.0006917613139162041	-0.02546301886623589	-0.001890969182911058	-0.2841579703281841	0.02573490914839591	0.01666857500675755	-0.4232450755295596	-0.04419621059303629	0.01331368900467665	0.3302482107285882	-0.04319402917902553	-63.79494402430745	-7.197057590835245	3.635837655638777	6.424685988509523	-751.2531772398377	75.96923569383942	0.9727371872800734	0.2140059339032952	1.427513667145963	-4.377199015369379	0.2360130454992796	-0.1793441267204706	0.6576653505464674	-4.362078512076375	-4.362078512076378	0.9602742937302744	-0.01171248389932939	-1.140205526217218	-0.1639187206847775	1.01386403078088e-08	1.65120306639778e-08	7.606585928418059e-08	9.645645616143676e-08	-8.42501242903732e-09	-1.934817641655802e-08	1.338899722107108e-07
1.04	-0.1521947182619958	0.01239789275823341	0.7026819603627774	1.174468933339635	-0.2312839370157795	-0.129981504596592	-0.7848049845228161	1.339567250417183	1.339567250417153	-0.1732057567830034	0.1743848825376232	0.4357385447268911	0.1898137030632647	0.1072844431194076	0.01459345632809805	0.07396241724522691	-0.2802210793166871	0.008571411805227198	-0.00554881408814467	0.0264319400573181	-0.2012508562381785	-0.2012508562381818	0.04965510192446865	-0.0007660040334378966	-0.03689802775690803	-0.003546463065020795	-0.2844736034083887	0.02591076223532512	0.01670969743236269	-0.4225470513587171	-0.04504793213777849	0.01330080273385016	0.3307623100949053	-0.04321623582763781	-64.09477214520717	-7.231856722760355	3.614776755168639	6.601295070605111	-751.6361173515897	75.91366371766667	0.9651888294984198	0.218491294377954	1.426527607319615	-4.376722372495219	0.2374394335883885	-0.2316050725854432	0.719297149401708	-4.380595732656504	-4.380595732656509	0.9119500852073777	-0.0006223869739151455	-1.146285061409334	-0.1630985965301765	1.297003282265686e-08	2.115605805825245e-08	9.404706590543417e-08	1.24374165040936e-07	-1.033365577138814e-08	-2.326087434291663e-08	1.661516112259493e-07
